<?xml version="1.0" encoding="utf-8"?>
<svg version="1.1" xmlns="http://www.w3.org/2000/svg" width="512" height="492">
  <path d="M 131.784 59.612 C 133.554 59.604 133.554 59.604 135.36 59.596 C 138.599 59.584 141.838 59.586 145.077 59.593 C 148.584 59.598 152.091 59.585 155.598 59.575 C 162.456 59.558 169.313 59.557 176.171 59.562 C 181.749 59.566 187.327 59.565 192.906 59.56 C 193.702 59.559 194.498 59.558 195.318 59.557 C 196.936 59.556 198.554 59.554 200.171 59.553 C 215.319 59.539 230.466 59.544 245.613 59.556 C 259.444 59.566 273.274 59.553 287.105 59.529 C 301.336 59.505 315.566 59.495 329.797 59.502 C 337.775 59.505 345.752 59.503 353.73 59.485 C 360.522 59.471 367.314 59.47 374.105 59.487 C 377.565 59.496 381.024 59.498 384.483 59.483 C 411.195 59.389 411.195 59.389 423.471 64 C 424.585 64.412 424.585 64.412 425.722 64.833 C 444.37 72.456 457.715 87.755 465.471 106 C 470.027 119.61 470.043 133.036 469.988 147.242 C 469.994 149.641 470.001 152.039 470.01 154.438 C 470.026 160.236 470.024 166.034 470.012 171.832 C 470.003 176.55 470.002 181.269 470.006 185.988 C 470.007 186.663 470.007 187.339 470.008 188.035 C 470.009 189.408 470.01 190.781 470.012 192.154 C 470.023 204.982 470.01 217.81 469.989 230.638 C 469.971 241.608 469.974 252.578 469.992 263.549 C 470.014 276.336 470.022 289.123 470.01 301.91 C 470.009 303.277 470.007 304.645 470.006 306.012 C 470.005 307.021 470.005 307.021 470.004 308.05 C 470.001 312.755 470.006 317.459 470.016 322.164 C 470.028 328.514 470.019 334.864 469.996 341.213 C 469.991 343.532 469.993 345.85 470.001 348.168 C 470.087 372.765 466.067 393.716 448.471 412 C 441.202 418.998 432.963 424.488 423.471 428 C 422.579 428.334 421.688 428.669 420.769 429.014 C 408.222 433.013 395.573 432.573 382.517 432.523 C 379.012 432.514 375.506 432.528 372.001 432.539 C 365.154 432.557 358.307 432.553 351.46 432.541 C 345.89 432.532 340.321 432.531 334.751 432.535 C 333.955 432.536 333.16 432.536 332.34 432.537 C 330.723 432.538 329.106 432.54 327.489 432.541 C 312.362 432.552 297.235 432.539 282.108 432.518 C 269.156 432.5 256.204 432.503 243.253 432.521 C 228.176 432.543 213.099 432.551 198.023 432.539 C 196.412 432.538 194.801 432.537 193.19 432.535 C 192.398 432.535 191.606 432.534 190.79 432.533 C 185.233 432.53 179.676 432.536 174.12 432.545 C 167.339 432.556 160.558 432.553 153.778 432.532 C 150.324 432.522 146.872 432.517 143.418 432.531 C 118.651 432.603 98.218 429.661 79.99 411.594 C 79.159 410.738 78.327 409.882 77.471 409 C 76.856 408.371 76.241 407.742 75.607 407.094 C 58.572 388.43 58.165 364.744 58.212 340.969 C 58.209 338.664 58.206 336.36 58.201 334.055 C 58.192 327.832 58.196 321.609 58.202 315.386 C 58.207 308.853 58.202 302.32 58.199 295.787 C 58.195 284.118 58.202 272.449 58.212 260.779 C 58.221 250.225 58.219 239.671 58.21 229.117 C 58.199 216.825 58.195 204.532 58.201 192.24 C 58.204 185.746 58.205 179.252 58.198 172.759 C 58.192 166.652 58.196 160.545 58.208 154.438 C 58.211 152.206 58.21 149.973 58.205 147.741 C 58.158 121.689 61.051 99.828 79.783 80.187 C 94.195 66.372 111.942 59.502 131.784 59.612 Z M 183.658 118.812 C 177.155 126.673 175.321 134.781 175.324 144.759 C 175.32 145.653 175.316 146.547 175.312 147.468 C 175.301 150.47 175.298 153.473 175.294 156.475 C 175.288 158.625 175.281 160.775 175.274 162.925 C 175.253 169.993 175.242 177.061 175.232 184.129 C 175.228 186.563 175.224 188.997 175.22 191.431 C 175.201 202.869 175.187 214.306 175.179 225.744 C 175.169 238.939 175.142 252.135 175.102 265.331 C 175.072 275.534 175.057 285.737 175.054 295.94 C 175.051 302.032 175.042 308.124 175.017 314.216 C 174.994 319.951 174.99 325.686 175 331.421 C 175.001 333.52 174.994 335.62 174.98 337.72 C 174.885 353.225 175.991 364.961 187.061 376.684 C 195.429 384.579 205.864 386.119 217.003 386.134 C 217.729 386.136 218.454 386.138 219.202 386.141 C 221.617 386.147 224.032 386.146 226.447 386.145 C 228.185 386.148 229.924 386.152 231.662 386.155 C 236.373 386.164 241.084 386.167 245.795 386.167 C 248.741 386.168 251.687 386.17 254.634 386.173 C 264.922 386.182 275.211 386.186 285.499 386.185 C 295.075 386.185 304.65 386.195 314.225 386.211 C 322.459 386.224 330.693 386.229 338.927 386.229 C 343.839 386.229 348.751 386.231 353.663 386.242 C 358.285 386.252 362.906 386.252 367.528 386.245 C 369.219 386.243 370.91 386.246 372.6 386.252 C 386.687 386.299 400.187 385.88 411.221 375.937 C 419.164 367.373 421.623 357.501 421.611 346.19 C 421.614 345.302 421.617 344.415 421.62 343.501 C 421.629 340.527 421.63 337.553 421.632 334.579 C 421.637 332.447 421.642 330.315 421.647 328.183 C 421.66 322.389 421.667 316.595 421.671 310.802 C 421.674 307.181 421.678 303.56 421.682 299.939 C 421.696 288.607 421.706 277.275 421.71 265.943 C 421.714 252.868 421.732 239.793 421.761 226.718 C 421.782 216.608 421.792 206.497 421.794 196.387 C 421.795 190.35 421.801 184.314 421.819 178.277 C 421.835 172.596 421.837 166.916 421.828 161.235 C 421.828 159.154 421.832 157.073 421.842 154.993 C 421.855 152.143 421.849 149.294 421.838 146.445 C 421.846 145.629 421.854 144.814 421.863 143.973 C 421.77 133.052 418.015 124.033 410.654 116.023 C 401.887 107.699 391.704 105.887 379.914 105.86 C 379.186 105.857 378.457 105.854 377.707 105.851 C 375.283 105.842 372.859 105.84 370.435 105.839 C 368.69 105.834 366.945 105.829 365.2 105.824 C 360.47 105.811 355.74 105.804 351.011 105.8 C 348.052 105.797 345.093 105.793 342.133 105.788 C 332.862 105.775 323.591 105.765 314.32 105.761 C 303.641 105.757 292.962 105.739 282.283 105.71 C 274.013 105.688 265.742 105.678 257.472 105.677 C 252.54 105.676 247.608 105.67 242.676 105.652 C 238.032 105.636 233.389 105.634 228.746 105.642 C 227.05 105.643 225.353 105.639 223.657 105.629 C 208.052 105.543 194.841 106.919 183.658 118.812 Z M 111.471 146 C 110.893 146.433 110.316 146.866 109.721 147.312 C 105.806 152.597 105.85 159.717 106.471 166 C 107.423 170.594 108.957 173.425 112.096 176.937 C 116.313 179.514 119.544 180.408 124.471 180 C 129.031 178.77 131.808 176.729 134.971 173.25 C 136.882 169.351 136.854 165.202 136.908 160.937 C 136.919 160.253 136.929 159.568 136.94 158.862 C 136.858 154.194 135.909 150.965 133.471 147 C 129.043 142.904 125.612 141.644 119.533 141.711 C 116.168 142.183 114.057 143.895 111.471 146 Z M 110.221 222.312 C 106.441 228.118 106.163 233.562 106.17 240.273 C 106.166 241.156 106.161 242.039 106.157 242.948 C 106.151 244.809 106.151 246.669 106.155 248.53 C 106.158 251.359 106.135 254.187 106.109 257.016 C 106.107 258.831 106.106 260.646 106.107 262.461 C 106.098 263.298 106.089 264.134 106.08 264.996 C 106.126 270.905 106.734 276.978 110.887 281.564 C 114.346 284.564 117.128 285.842 121.658 286.375 C 126.484 285.9 129.919 284.32 133.471 281 C 137.006 275.555 136.923 270.652 136.904 264.379 C 136.91 263.361 136.915 262.343 136.92 261.294 C 136.927 259.146 136.925 256.999 136.917 254.851 C 136.908 251.577 136.937 248.304 136.969 245.029 C 136.97 242.938 136.97 240.846 136.967 238.754 C 136.978 237.781 136.989 236.808 137.001 235.805 C 136.938 229.67 136.058 226.021 132.471 221 C 129.153 218.32 125.537 217.149 121.346 216.562 C 116.631 217.28 113.544 218.896 110.221 222.312 Z" style="fill: rgb(255, 255, 255);"/>
  <path d="M0 0 C0.68651642 -0.00686325 1.37303284 -0.0137265 2.08035278 -0.02079773 C4.35008417 -0.03910138 6.61912665 -0.03522333 8.88891602 -0.02954102 C10.46688564 -0.03410133 12.04485326 -0.03940645 13.62281799 -0.04542542 C16.93075628 -0.05436363 20.23845325 -0.05192569 23.54638672 -0.04199219 C27.78473274 -0.03050478 32.02224533 -0.05070606 36.26048183 -0.07990932 C39.51961048 -0.09826014 42.77853903 -0.09798111 46.03770638 -0.0922718 C47.60021191 -0.09211843 49.16273087 -0.09817592 50.7251873 -0.11056328 C52.91107231 -0.12545039 55.09541317 -0.11481531 57.28125 -0.09765625 C58.52462631 -0.09749008 59.76800262 -0.09732391 61.04905701 -0.09715271 C64.96145448 0.52412426 65.87475017 1.22788706 68.20532227 4.40405273 C68.59806405 7.36261982 68.74582186 9.94848415 68.71325684 12.90649414 C68.7194968 13.77280268 68.72573676 14.63911121 68.73216581 15.53167152 C68.74814435 18.4399281 68.73547259 21.34735217 68.72290039 24.25561523 C68.72831934 26.33836355 68.73544072 28.42110802 68.74414062 30.50384521 C68.76240376 36.16494868 68.75529401 41.82576114 68.74262428 47.48686981 C68.73251215 53.40539853 68.74188499 59.32390197 68.74816895 65.24243164 C68.75545055 75.18241865 68.74584413 85.12228687 68.72680664 95.06225586 C68.705037 106.5617023 68.712088 118.06086508 68.73411226 129.56030464 C68.75225159 139.42535903 68.75483175 149.29032792 68.74435759 159.1553936 C68.73811461 165.05092902 68.73730918 170.94633101 68.75050354 176.84185791 C68.76204001 182.38393716 68.75407643 187.92564994 68.73092651 193.46768951 C68.72562766 195.50427898 68.72717321 197.54089917 68.73597717 199.5774765 C68.74686974 202.35260753 68.73324537 205.12655614 68.71325684 207.90161133 C68.72217972 208.71211252 68.73110261 209.52261372 68.74029589 210.35767555 C68.69043684 213.91380943 68.50322069 215.99806883 66.37084293 218.90412998 C63.28826135 221.03924434 61.01045574 220.90526334 57.28125 220.90576172 C56.24884689 220.9138662 56.24884689 220.9138662 55.19558716 220.9221344 C52.92625599 220.93461653 50.65819474 220.91813762 48.38891602 220.90014648 C46.80998162 220.90030147 45.23104685 220.90179035 43.65211487 220.90455627 C40.34586738 220.90593996 37.04005387 220.89338638 33.73388672 220.87060547 C29.4944421 220.84219724 25.25571722 220.84496465 21.01621914 220.85769558 C17.75712425 220.86464717 14.498196 220.85686991 11.23912239 220.84443855 C9.67580873 220.83992059 8.1124772 220.83959026 6.54916191 220.84350395 C4.36573414 220.84641178 2.183302 220.8299324 0 220.80810547 C-1.24258072 220.80270248 -2.48516144 220.7972995 -3.76539612 220.79173279 C-6.79467773 220.40405273 -6.79467773 220.40405273 -8.4601984 219.40887547 C-10.6087485 216.18105323 -10.20616205 212.68907521 -10.17562866 208.93920898 C-10.18030863 208.0648822 -10.18498861 207.19055542 -10.1898104 206.28973389 C-10.20181388 203.34852098 -10.19228229 200.40776942 -10.18286133 197.46655273 C-10.18692465 195.36262743 -10.19226518 193.25870426 -10.1987915 191.15478516 C-10.21249936 185.43175044 -10.20715213 179.70887748 -10.19765425 173.98583984 C-10.19007561 168.00544794 -10.19709825 162.02507017 -10.20181274 156.04467773 C-10.20727554 146.00038152 -10.20006493 135.95615142 -10.18579102 125.91186523 C-10.16946354 114.28806256 -10.17475167 102.66441774 -10.19127023 91.0406189 C-10.20487017 81.07285203 -10.20681207 71.10513276 -10.19895422 61.13735962 C-10.1942695 55.17870495 -10.19367479 49.22012455 -10.20356369 43.26147461 C-10.21220936 37.66037583 -10.20625538 32.05948119 -10.18888092 26.45840454 C-10.18490323 24.39881734 -10.18607191 22.33921305 -10.19266891 20.27963257 C-10.20082391 17.4758194 -10.19063629 14.67266714 -10.17562866 11.86889648 C-10.18232083 11.04701843 -10.18901299 10.22514038 -10.19590795 9.37835693 C-10.13895241 3.92126546 -10.13895241 3.92126546 -8.4601984 1.39923 C-5.71968424 -0.23827438 -3.15617255 0.01372366 0 0 Z M18.76391602 43.83764648 C13.51389884 49.83552935 13.9926913 55.14465259 13.95532227 62.71655273 C13.93469727 63.74973633 13.91407227 64.78291992 13.89282227 65.84741211 C13.85500815 73.21643832 14.64532386 77.72498463 19.89282227 83.21655273 C23.78882193 85.7893827 26.56285537 86.70936004 31.20532227 86.40405273 C36.4214261 84.83922158 39.26051998 82.98485628 42.20532227 78.40405273 C44.83047114 73.50440664 44.5727583 68.51113716 44.58032227 63.09155273 C44.60481445 62.17954102 44.62930664 61.2675293 44.65454102 60.32788086 C44.6865781 52.87925968 43.02501292 47.54599375 38.01782227 41.96655273 C31.36508947 38.27059007 24.38542581 38.24660558 18.76391602 43.83764648 Z " transform="translate(215.794677734375,135.595947265625)" style="fill: rgb(255, 255, 255);"/>
  <path d="M0 0 C0.68826874 -0.00540298 1.37653748 -0.01080597 2.08566284 -0.01637268 C4.35499401 -0.02885482 6.62305526 -0.0123759 8.89233398 0.00561523 C10.47126838 0.00546025 12.05020315 0.00397137 13.62913513 0.00120544 C16.93538262 -0.00017824 20.24119613 0.01237534 23.54736328 0.03515625 C27.7868079 0.06356448 32.02553278 0.06079707 36.26503086 0.04806614 C39.52412575 0.04111455 42.783054 0.04889181 46.04212761 0.06132317 C47.60544127 0.06584112 49.1687728 0.06617146 50.73208809 0.06225777 C52.91551586 0.05934994 55.097948 0.07582932 57.28125 0.09765625 C58.52383072 0.10305923 59.76641144 0.10846222 61.04664612 0.11402893 C64.07592773 0.50170898 64.07592773 0.50170898 65.7414484 1.49688625 C67.8899985 4.72470849 67.48741205 8.21668651 67.45687866 11.96655273 C67.46155863 12.84087952 67.46623861 13.7152063 67.4710604 14.61602783 C67.48306388 17.55724074 67.47353229 20.4979923 67.46411133 23.43920898 C67.46817465 25.54313429 67.47351518 27.64705746 67.4800415 29.75097656 C67.49374936 35.47401128 67.48840213 41.19688424 67.47890425 46.91992188 C67.47132561 52.90031378 67.47834825 58.88069155 67.48306274 64.86108398 C67.48852554 74.9053802 67.48131493 84.9496103 67.46704102 94.99389648 C67.45071354 106.61769915 67.45600167 118.24134398 67.47252023 129.86514282 C67.48612017 139.83290969 67.48806207 149.80062895 67.48020422 159.7684021 C67.4755195 165.72705677 67.47492479 171.68563717 67.48481369 177.64428711 C67.49345936 183.24538589 67.48750538 188.84628053 67.47013092 194.44735718 C67.46615323 196.50694438 67.46732191 198.56654867 67.47391891 200.62612915 C67.48207391 203.42994232 67.47188629 206.23309458 67.45687866 209.03686523 C67.46357083 209.85874329 67.47026299 210.68062134 67.47715795 211.52740479 C67.42020241 216.98449626 67.42020241 216.98449626 65.7414484 219.50653172 C63.00093424 221.1440361 60.43742255 220.89203806 57.28125 220.90576172 C56.59473358 220.91262497 55.90821716 220.91948822 55.20089722 220.92655945 C52.93116583 220.9448631 50.66212335 220.94098505 48.39233398 220.93530273 C46.81436436 220.93986305 45.23639674 220.94516817 43.65843201 220.95118713 C40.35049372 220.96012535 37.04279675 220.95768741 33.73486328 220.94775391 C29.49651726 220.9362665 25.25900467 220.95646778 21.02076817 220.98567104 C17.76163952 221.00402186 14.50271097 221.00374283 11.24354362 220.99803352 C9.68103809 220.99788015 8.11851913 221.00393764 6.5560627 221.016325 C4.37017769 221.03121211 2.18583683 221.02057703 0 221.00341797 C-1.86506447 221.00316872 -1.86506447 221.00316872 -3.76780701 221.00291443 C-7.68020448 220.38163746 -8.59350017 219.67787466 -10.92407227 216.50170898 C-11.31681405 213.5431419 -11.46457186 210.95727757 -11.43200684 207.99926758 C-11.4382468 207.13295904 -11.44448676 206.26665051 -11.45091581 205.37409019 C-11.46689435 202.46583362 -11.45422259 199.55840955 -11.44165039 196.65014648 C-11.44706934 194.56739817 -11.45419072 192.48465369 -11.46289062 190.4019165 C-11.48115376 184.74081304 -11.47404401 179.08000058 -11.46137428 173.41889191 C-11.45126215 167.50036319 -11.46063499 161.58185975 -11.46691895 155.66333008 C-11.47420055 145.72334306 -11.46459413 135.78347485 -11.44555664 125.84350586 C-11.423787 114.34405942 -11.430838 102.84489664 -11.45286226 91.34545708 C-11.47100159 81.48040269 -11.47358175 71.61543379 -11.46310759 61.75036812 C-11.45686461 55.8548327 -11.45605918 49.95943071 -11.46925354 44.06390381 C-11.48079001 38.52182456 -11.47282643 32.98011178 -11.44967651 27.4380722 C-11.44437766 25.40148274 -11.44592321 23.36486255 -11.45472717 21.32828522 C-11.46561974 18.55315419 -11.45199537 15.77920558 -11.43200684 13.00415039 C-11.44539117 11.7883986 -11.44539117 11.7883986 -11.45904589 10.54808617 C-11.40918684 6.99195229 -11.22197069 4.90769289 -9.08959293 2.00163174 C-6.00701135 -0.13348262 -3.72920574 0.00049838 0 0 Z M17.56420898 43.93530273 C12.37082869 49.90248181 12.8629689 55.30874341 12.82592773 62.81420898 C12.80530273 63.84739258 12.78467773 64.88057617 12.76342773 65.94506836 C12.72570591 73.29610941 13.53911369 77.78369394 18.70092773 83.31420898 C22.46567157 86.20800462 26.4044358 86.77897379 31.07592773 86.50170898 C36.35484358 84.77590957 38.89513711 81.86393613 42.07592773 77.50170898 C43.63790844 72.81576687 43.30170521 68.09729722 43.32592773 63.18920898 C43.34655273 62.15602539 43.36717773 61.1228418 43.38842773 60.05834961 C43.42624185 52.6893234 42.63592614 48.18077709 37.38842773 42.68920898 C30.79223802 38.33323464 23.66848822 38.14649012 17.56420898 43.93530273 Z " transform="translate(324.924072265625,135.498291015625)" style="fill: rgb(255, 255, 255);"/>
</svg>