<?xml version="1.0" encoding="utf-8"?>
<svg version="1.1" xmlns="http://www.w3.org/2000/svg" width="512" height="512">
  <path d="M0 0 C1.25007169 -0.00701996 1.25007169 -0.00701996 2.52539736 -0.01418173 C5.30433234 -0.02610113 8.08277138 -0.01668648 10.86170959 -0.00723267 C12.85959154 -0.01129975 14.85747124 -0.0166424 16.85534668 -0.02316284 C22.27270813 -0.03682674 27.68989796 -0.03154131 33.10726237 -0.02202559 C38.78099574 -0.01442319 44.45471454 -0.02147631 50.12844849 -0.02618408 C59.65707534 -0.03164038 69.18563241 -0.02445376 78.71424866 -0.01016235 C89.72342205 0.0061592 100.73242872 0.00087869 111.74159807 -0.01564157 C121.19997455 -0.02926558 130.6583009 -0.03117146 140.11668402 -0.02332556 C145.76300733 -0.0186535 151.40925235 -0.01801133 157.0555706 -0.02793503 C162.36536632 -0.03661551 167.67494762 -0.03056286 172.98472023 -0.01325226 C174.930944 -0.00929302 176.87718589 -0.0104118 178.8234024 -0.01704025 C181.4851305 -0.0252682 184.1461764 -0.01491915 186.80786133 0 C187.57353721 -0.00669217 188.33921309 -0.01338433 189.12809128 -0.02027929 C195.24516381 0.04598177 200.60035178 1.33086851 205.67445374 4.95907593 C206.20425842 5.51079468 206.73406311 6.06251343 207.27992249 6.63095093 C207.8226178 7.17235718 208.36531311 7.71376343 208.92445374 8.27157593 C213.64738618 14.72824307 213.90094549 20.5863784 213.85510254 28.34321594 C213.86318085 29.98530866 213.86318085 29.98530866 213.87142235 31.66057497 C213.88571449 35.32391079 213.87859487 38.9868859 213.87147522 42.65023804 C213.87717809 45.27865388 213.88414203 47.90706724 213.89227295 50.53547668 C213.90945035 56.93075859 213.9103032 63.32594219 213.90506005 69.72124117 C213.90101524 74.92029134 213.90246559 80.1193125 213.9078083 85.31836128 C213.90855673 86.05889988 213.90930515 86.79943848 213.91007625 87.56241765 C213.91160776 89.06691706 213.91314611 90.57141648 213.91469122 92.07591588 C213.92841235 106.17793427 213.92298123 120.27989715 213.911506 134.38191427 C213.90157338 147.2768402 213.91451545 160.17162266 213.9384402 173.06652647 C213.96283542 186.31506702 213.97243807 199.56354076 213.96578747 212.81210333 C213.96229627 220.24696466 213.96452078 227.68171565 213.9820385 235.11655998 C213.99830593 242.10732079 213.99357225 249.09780313 213.97473335 256.08855629 C213.97104244 258.65400515 213.97417046 261.21947424 213.98461914 263.78490448 C213.99779548 267.28748768 213.98630983 270.78915839 213.96862793 274.29170227 C213.98303544 275.81374713 213.98303544 275.81374713 213.99773401 277.36654037 C213.92332396 284.53257169 212.45793817 289.91543163 207.72132874 295.40438843 C207.16316467 295.85040405 206.60500061 296.29641968 206.02992249 296.75595093 C205.47433655 297.2174353 204.91875061 297.67891968 204.34632874 298.15438843 C199.41103321 301.37618218 194.82917351 301.67112113 189.0614624 301.64837646 C187.795578 301.65517313 187.795578 301.65517313 186.50412017 301.66210711 C183.67762289 301.67476248 180.85131801 301.67313 178.02479553 301.67147827 C175.99765271 301.67746282 173.97051217 301.6842682 171.94337463 301.6918335 C166.43709865 301.70950851 160.93088481 301.71418952 155.4245832 301.71546507 C150.82722244 301.7173643 146.22987616 301.72472215 141.63252097 301.73180926 C130.78491884 301.74809666 119.9373499 301.7529779 109.08973694 301.7515564 C97.90221793 301.75035498 86.71489184 301.77145619 75.52742165 301.80304372 C65.92047204 301.82920149 56.31358544 301.83992389 46.70660049 301.83864558 C40.96966224 301.83813578 35.23289542 301.84382876 29.49599266 301.86500168 C24.09919264 301.8843754 18.70272771 301.88451427 13.30591583 301.86996841 C11.32743401 301.86787813 9.34893126 301.87259425 7.37048531 301.88468933 C4.66470885 301.90015683 1.96008564 301.89082387 -0.7456665 301.87542725 C-1.52437947 301.88571437 -2.30309244 301.8960015 -3.10540277 301.90660036 C-9.66792257 301.82435654 -14.79271301 299.73895278 -19.77476501 295.45126343 C-20.31359314 294.8093103 -20.85242126 294.16735718 -21.40757751 293.50595093 C-21.96187439 292.86915405 -22.51617126 292.23235718 -23.08726501 291.57626343 C-27.00947685 285.61874167 -26.8232195 279.53954368 -26.80673218 272.66629028 C-26.8145872 271.04597188 -26.8145872 271.04597188 -26.8226009 269.39291978 C-26.83760465 265.77268178 -26.83830615 262.15258508 -26.838974 258.53231812 C-26.84659522 255.93685162 -26.85502265 253.34138738 -26.86419678 250.7459259 C-26.88701637 243.69418235 -26.89496404 236.64246895 -26.90002322 229.59069347 C-26.90328365 225.18473807 -26.9098082 220.77879136 -26.91702461 216.37284088 C-26.93658623 204.16561541 -26.95299312 191.95839801 -26.95590115 179.75115585 C-26.95608872 178.97046522 -26.95627629 178.18977458 -26.95646954 177.38542666 C-26.95683578 175.80289189 -26.95719948 174.22035713 -26.95756065 172.63782236 C-26.95774346 171.85228819 -26.95792627 171.06675401 -26.95811462 170.25741577 C-26.95829517 169.47091897 -26.95847572 168.68442217 -26.95866174 167.87409213 C-26.96220278 155.13239643 -26.98922264 142.39086979 -27.02661251 129.64923272 C-27.06472368 116.55666176 -27.08405883 103.46417463 -27.08436066 90.37154698 C-27.08494458 83.02487323 -27.09339446 75.6784012 -27.12235832 68.33177948 C-27.14948086 61.42061222 -27.15075316 54.5098502 -27.13470268 47.59864998 C-27.13288686 45.06467125 -27.13959075 42.53066965 -27.15552139 39.99674034 C-27.17597359 36.53187045 -27.16543307 33.06839875 -27.14730835 29.60354614 C-27.16050832 28.60566598 -27.17370829 27.60778581 -27.18730825 26.57966685 C-27.09769982 19.05684836 -25.14457484 12.53891464 -20.12531084 6.76097083 C-14.04510708 1.30303829 -7.8349095 -0.0682798 0 0 Z " transform="translate(297.53257751464844,210.61904907226563)" style="fill: rgb(255, 255, 255);"/>
  <path d="M0 0 C0.84800649 -0.00523668 1.69601298 -0.01047336 2.56971663 -0.01586872 C5.41002549 -0.03086529 8.25015415 -0.0315738 11.09049988 -0.03224182 C13.12749536 -0.03986352 15.16448797 -0.04829104 17.20147705 -0.0574646 C22.73460506 -0.07941511 28.2676778 -0.08820924 33.80084443 -0.09329104 C37.25817346 -0.09693389 40.715488 -0.10317357 44.17281151 -0.11029243 C56.23555004 -0.13478863 68.29824556 -0.14783925 80.36100769 -0.15138245 C91.60309649 -0.15501807 102.84491233 -0.1849151 114.0869177 -0.22678703 C123.74057635 -0.26148185 133.39414451 -0.27693075 143.04786509 -0.27762848 C148.81279421 -0.27842155 154.57744528 -0.28717436 160.34230995 -0.31562614 C165.76542524 -0.34179273 171.18803168 -0.34401957 176.61118126 -0.3279705 C178.59934473 -0.32615493 180.58753736 -0.33285651 182.57563782 -0.34878922 C185.29475978 -0.36924843 188.01210111 -0.35869929 190.73120117 -0.34057617 C191.51380509 -0.35377614 192.296409 -0.36697611 193.10272819 -0.38057607 C199.95062074 -0.27667111 204.5498768 2.58714646 209.57951355 7.08274841 C210.24853699 7.88905701 210.24853699 7.88905701 210.93107605 8.71165466 C211.62330261 9.51409607 211.62330261 9.51409607 212.32951355 10.33274841 C216.04358207 16.21138553 215.8442113 22.2447951 215.82350159 28.95085144 C215.8280327 30.02698015 215.83256381 31.10310887 215.83723223 32.21184754 C215.84989379 35.8182722 215.8482547 39.42454618 215.84660339 43.0309906 C215.85258756 45.61660456 215.85939285 48.20221673 215.86695862 50.78782654 C215.88355458 57.08296251 215.88906754 63.37806101 215.89018337 69.67321703 C215.8911346 74.79217766 215.8952486 79.91112597 215.90158463 85.0300827 C215.91919388 99.55309094 215.92842409 114.07606965 215.92692368 128.59908864 C215.92684376 129.38163582 215.92676385 130.164183 215.92668152 130.97044373 C215.92659976 131.75394991 215.926518 132.5374561 215.92643376 133.3447049 C215.92562114 146.03787678 215.94475351 158.73092992 215.97295825 171.42406747 C216.00171062 184.46691729 216.01549723 197.50970925 216.0137707 210.55259156 C216.01310757 217.87128607 216.01856595 225.18985613 216.0401268 232.50852203 C216.0602801 239.3933849 216.05964083 246.27798116 216.04509354 253.16285706 C216.04300295 255.68715549 216.04772109 258.21147033 216.05981445 260.73574066 C216.07527686 264.18730945 216.06595096 267.63797365 216.05055237 271.08952332 C216.06083949 272.08351253 216.07112662 273.07750175 216.08172548 274.10161185 C216.01047338 281.35129407 214.80911639 288.58304999 209.86464822 294.19335532 C203.68907241 299.9774116 197.2484141 301.72678422 189.02349854 301.65510559 C188.19011741 301.65978556 187.35673628 301.66446553 186.49810117 301.66928732 C183.7191662 301.68120672 180.94072716 301.67179207 178.16178894 301.66233826 C176.163907 301.66640534 174.1660273 301.67174799 172.16815186 301.67826843 C166.75079041 301.69193233 161.33360057 301.6866469 155.91623616 301.67713118 C150.2425028 301.66952878 144.568784 301.6765819 138.89505005 301.68128967 C129.3664232 301.68674597 119.83786613 301.67955935 110.30924988 301.66526794 C99.30007648 301.6489464 88.29106981 301.6542269 77.28190047 301.67074716 C67.82352399 301.68437117 58.36519764 301.68627706 48.90681452 301.67843115 C43.2604912 301.67375909 37.61424619 301.67311692 31.96792793 301.68304062 C26.65813221 301.6917211 21.34855092 301.68566845 16.03877831 301.66835785 C14.09255453 301.66439861 12.14631264 301.6655174 10.20009613 301.67214584 C7.53836804 301.68037379 4.87732213 301.67002474 2.21563721 301.65510559 C1.44996132 301.66179776 0.68428544 301.66848992 -0.10459274 301.67538488 C-6.21926291 301.60914984 -11.61172358 300.34441794 -16.6509552 296.66087341 C-17.44566223 295.81976013 -17.44566223 295.81976013 -18.25642395 294.96165466 C-18.79911926 294.40864685 -19.34181458 293.85563904 -19.9009552 293.28587341 C-24.63536485 287.1131621 -24.8756531 281.89735596 -24.831604 274.3941803 C-24.83698954 273.29622269 -24.84237508 272.19826508 -24.84792382 271.06703603 C-24.86223491 267.38677547 -24.85509165 263.70687299 -24.84797668 260.02659607 C-24.85367862 257.38846701 -24.86054152 254.75036368 -24.86877441 252.11224365 C-24.88596298 245.6894192 -24.88680226 239.26669258 -24.88156151 232.8438511 C-24.87751839 227.62237049 -24.87896506 222.40091878 -24.88430977 217.17943954 C-24.88505819 216.43599009 -24.88580661 215.69254064 -24.88657771 214.92656242 C-24.88810921 213.41618447 -24.88964756 211.90580652 -24.89119268 210.39542858 C-24.90491813 196.23380308 -24.89947991 182.07223282 -24.88800747 167.91060857 C-24.87807681 154.96065381 -24.89101274 142.01084195 -24.91494166 129.06090923 C-24.93933696 115.75815979 -24.94893937 102.45547691 -24.94228894 89.15270555 C-24.93879743 81.68653036 -24.94102407 74.22046505 -24.95853996 66.75430679 C-24.97326743 60.39794512 -24.97389049 54.04177069 -24.95646905 47.68541266 C-24.94796061 44.44381723 -24.94797619 41.20262477 -24.96112061 37.96103477 C-24.97429642 34.44307271 -24.96281169 30.92601922 -24.94512939 27.40809631 C-24.9547344 26.38882667 -24.96433941 25.36955703 -24.97423548 24.31940043 C-24.90000105 17.13926916 -23.44415134 11.75092824 -18.6978302 6.25071716 C-18.13966614 5.80470154 -17.58150208 5.35868591 -17.00642395 4.89915466 C-16.45083801 4.43767029 -15.89525208 3.97618591 -15.3228302 3.50071716 C-10.37758977 0.27243131 -5.77903559 -0.01768266 0 0 Z " transform="translate(25.443923950195313,-0.2741546630859375)" style="fill: rgb(255, 255, 255);"/>
  <path d="M0 0 C1.26504934 -0.00913666 1.26504934 -0.00913666 2.55565524 -0.01845789 C5.37446062 -0.03507287 8.19281352 -0.03031419 11.01165771 -0.0255127 C13.03570525 -0.03285401 15.05974859 -0.04144042 17.08378601 -0.05117798 C22.57776566 -0.07339906 28.07159533 -0.07632425 33.56561375 -0.07443047 C38.15538703 -0.07431076 42.74512855 -0.0828751 47.33489299 -0.09120798 C58.16678534 -0.11044521 68.99860062 -0.11332512 79.83050537 -0.10656738 C90.99476793 -0.0999302 102.15869979 -0.12277741 113.32289529 -0.15988111 C122.9154692 -0.19060169 132.50793689 -0.20193545 142.100559 -0.1980443 C147.82640016 -0.1959788 153.55198414 -0.20142525 159.27777863 -0.22593689 C164.66563973 -0.24823944 170.05296452 -0.24629665 175.44082832 -0.22600937 C177.41363252 -0.22260527 179.38647305 -0.22766243 181.35922813 -0.24199295 C200.96003808 -0.37450438 200.96003808 -0.37450438 208.48724365 5.39440918 C210.7411499 7.78112793 210.7411499 7.78112793 212.04974365 10.08190918 C212.50478271 10.84890137 212.95982178 11.61589355 213.4286499 12.40612793 C215.38658723 16.08358216 215.61855651 18.27991636 215.63441467 22.50344849 C215.64514763 24.45914261 215.64514763 24.45914261 215.65609741 26.4543457 C215.65893786 27.90783668 215.66164957 29.36132791 215.66424561 30.81481934 C215.67050925 32.33906205 215.67715596 33.86330323 215.68415833 35.38754272 C215.70158102 39.53658413 215.71212426 43.685614 215.72036386 47.83468294 C215.72551299 50.42747352 215.73158887 53.02026051 215.73787498 55.61304855 C215.75693352 63.72674631 215.77116133 71.84043495 215.77948695 79.9541508 C215.78925259 89.31670148 215.81555165 98.67901532 215.85598785 108.04148257 C215.88617185 115.27895736 215.90095812 122.51636438 215.90426797 129.75390089 C215.90661651 134.07575249 215.91555077 138.39735127 215.94072914 142.71913528 C215.96405396 146.78871625 215.96822554 150.85787875 215.95796776 154.92750931 C215.9574733 156.41739292 215.96376721 157.90729743 215.9775238 159.39711761 C216.05552826 168.34933452 215.85615847 175.3315504 209.7411499 182.41784668 C209.18298584 182.8638623 208.62482178 183.30987793 208.04974365 183.76940918 C207.49415771 184.23089355 206.93857178 184.69237793 206.3661499 185.16784668 C201.41939757 188.39711951 196.82397213 188.68451804 191.0433197 188.66183472 C190.19531321 188.66636583 189.34730672 188.67089694 188.47360307 188.67556536 C185.63328653 188.68822124 182.79316144 188.68658822 179.95281982 188.68493652 C177.91582492 188.69092104 175.87883229 188.69772641 173.84184265 188.70529175 C168.30870807 188.72296708 162.77563535 188.72764779 157.24247527 188.72892332 C152.62274659 188.73082252 148.00303232 188.73818034 143.38330919 188.74526751 C132.48296937 188.76155503 121.5826626 188.76643614 110.68231201 188.76501465 C99.44026182 188.76381322 88.19840361 188.78491451 76.956402 188.81650198 C67.30274369 188.84265939 57.64914809 188.85338216 47.99545461 188.85210383 C42.23057102 188.85159402 36.46585802 188.85728755 30.70100975 188.87845993 C25.27794543 188.89783307 19.85521457 188.89797292 14.43213844 188.88342667 C12.4439813 188.88133631 10.45580334 188.88605293 8.46768188 188.89814758 C5.74877009 188.91361404 3.03100611 188.90428277 0.31211853 188.8888855 C-0.47048539 188.89917262 -1.2530893 188.90945975 -2.05940849 188.92005861 C-8.48764107 188.83987829 -13.64558954 186.86858594 -18.53619385 182.64831543 C-18.98220947 182.09015137 -19.4282251 181.5319873 -19.88775635 180.95690918 C-20.34924072 180.40132324 -20.8107251 179.8457373 -21.28619385 179.27331543 C-24.14422511 174.89524844 -24.76488071 171.10794164 -24.78018188 165.92460632 C-24.78871185 164.61668625 -24.79724182 163.30876617 -24.80603027 161.96121216 C-24.8053313 160.5186156 -24.80440827 159.07601914 -24.80328369 157.63342285 C-24.80927044 156.10873587 -24.81607633 154.58405192 -24.82363892 153.05937195 C-24.84129219 148.92288292 -24.84599404 144.78647666 -24.84727049 140.6499536 C-24.84869314 138.06367303 -24.85296491 135.47741343 -24.85826492 132.89113808 C-24.87676363 123.86283662 -24.88493582 114.83459419 -24.88336182 105.80627441 C-24.88216076 97.39983898 -24.90325639 88.99366043 -24.93484914 80.58728999 C-24.9610306 73.36248323 -24.97172832 66.13776028 -24.970451 58.91290647 C-24.96994187 54.60117485 -24.97559747 50.28967152 -24.9968071 45.97798729 C-25.01622087 41.92065806 -25.01629277 37.86377416 -25.00177383 33.80642891 C-24.99968844 32.32138796 -25.00437059 30.83631891 -25.01649475 29.35132599 C-25.13870893 13.33901844 -25.13870893 13.33901844 -19.13623619 6.92306805 C-13.24129365 1.64701812 -7.76437712 -0.05295934 0 0 Z " transform="translate(25.51275634765625,323.6055908203125)" style="fill: rgb(255, 255, 255);"/>
  <path d="M0 0 C0.84715206 -0.00453111 1.69430413 -0.00906223 2.56712747 -0.01373065 C5.41054983 -0.02640771 8.25378147 -0.02475213 11.097229 -0.02310181 C13.13407641 -0.02908506 15.17092154 -0.03589014 17.20776367 -0.04345703 C22.74508954 -0.06114667 28.28235362 -0.06581371 33.81970501 -0.0670886 C38.44186884 -0.06898676 43.06401825 -0.07634349 47.68617654 -0.08343279 C58.59273269 -0.09972627 69.49925583 -0.10460094 80.40582275 -0.10317993 C91.65523655 -0.10197882 102.90445839 -0.12307253 114.15382361 -0.15466726 C123.81170802 -0.1808253 133.46952972 -0.19154739 143.12744927 -0.19026911 C148.89570117 -0.18975926 154.66378259 -0.19545505 160.43199921 -0.21662521 C165.85915407 -0.23599903 171.28597573 -0.23613772 176.7131424 -0.22159195 C178.70291124 -0.21950158 180.69270089 -0.22421832 182.68243408 -0.23631287 C185.4035886 -0.25177928 188.12359624 -0.24244802 190.84472656 -0.22705078 C191.6280126 -0.23733791 192.41129863 -0.24762503 193.21832061 -0.25822389 C199.64883504 -0.17808214 204.80728544 1.79162791 209.69976807 6.01351929 C210.3687915 6.85076538 210.3687915 6.85076538 211.05133057 7.70492554 C211.74355713 8.53830444 211.74355713 8.53830444 212.44976807 9.38851929 C215.30779933 13.76658628 215.92845493 17.55389308 215.9437561 22.73722839 C215.95655106 24.69910851 215.95655106 24.69910851 215.96960449 26.70062256 C215.96890552 28.14321912 215.96798248 29.58581558 215.96685791 31.02841187 C215.97284466 32.55309884 215.97965055 34.07778279 215.98721313 35.60246277 C216.0048664 39.7389518 216.00956826 43.87535806 216.01084471 48.01188111 C216.01226735 50.59816168 216.01653912 53.18442128 216.02183914 55.77069664 C216.04033785 64.79899809 216.04851004 73.82724053 216.04693604 82.8555603 C216.04573498 91.26199574 216.06683061 99.66817428 216.09842336 108.07454473 C216.12460482 115.29935148 216.13530253 122.52407444 216.13402522 129.74892825 C216.13351609 134.06065987 216.13917169 138.37216319 216.16038132 142.68384743 C216.17979509 146.74117665 216.17986699 150.79806056 216.16534805 154.85540581 C216.16326266 156.34044676 216.16794481 157.82551581 216.18006897 159.31050873 C216.24858818 168.28778719 216.27857909 175.52793302 209.71148682 182.29086304 C208.73502197 182.95988647 208.73502197 182.95988647 207.73883057 183.64242554 C207.09043213 184.10390991 206.44203369 184.56539429 205.77398682 185.04086304 C200.63164612 188.04774381 196.19697556 188.55818824 190.30833435 188.53485107 C189.46849497 188.53938219 188.62865558 188.5439133 187.76336652 188.54858172 C184.95068849 188.56123658 182.13820383 188.55960464 179.32550049 188.55795288 C177.30820975 188.56393747 175.2909213 188.57074285 173.27363586 188.57830811 C167.79421846 188.5959828 162.31486352 188.60066412 156.83542037 188.60193968 C152.26042754 188.60383894 147.68544925 188.61119683 143.11046201 188.61828387 C132.31559755 188.63457115 121.52076645 188.63945252 110.72589111 188.63803101 C99.59290328 188.63682959 88.46010932 188.65793072 77.32717055 188.68951833 C67.76692963 188.71567645 58.20675204 188.72639849 48.64647561 188.72512019 C42.93748271 188.7246104 37.22866206 188.73030283 31.51970482 188.75147629 C26.1491691 188.7708506 20.77897011 188.77098848 15.40842247 188.75644302 C13.43961597 188.75435281 11.47078843 188.75906843 9.50201797 188.77116394 C6.80937684 188.78663249 4.11789443 188.77729782 1.42527771 188.76190186 C0.65045569 188.77218898 -0.12436633 188.78247611 -0.9226678 188.79307497 C-7.47211766 188.71060351 -12.59453861 186.61618969 -17.56585693 182.33773804 C-18.10468506 181.69578491 -18.64351318 181.05383179 -19.19866943 180.39242554 C-19.75296631 179.75562866 -20.30726318 179.11883179 -20.87835693 178.46273804 C-23.92071637 173.84164073 -24.57456052 169.28059551 -24.59109497 163.83595276 C-24.59962494 162.5617598 -24.60815491 161.28756683 -24.61694336 159.97476196 C-24.61624443 158.57516467 -24.61532143 157.17556747 -24.61419678 155.77597046 C-24.62018556 154.29216678 -24.62699191 152.80836621 -24.634552 151.3245697 C-24.6521842 147.30377103 -24.65690622 143.28305755 -24.65818357 139.26222396 C-24.65960737 136.7471216 -24.66388131 134.23204075 -24.66917801 131.71694374 C-24.68766948 122.93387101 -24.69584978 114.15085889 -24.6942749 105.36776733 C-24.69307392 97.19479116 -24.71416998 89.02207924 -24.74576223 80.84916991 C-24.7719583 73.82050376 -24.7826408 66.79192373 -24.78136408 59.76320916 C-24.7808554 55.57050643 -24.78648623 51.37803863 -24.80772018 47.18538475 C-24.82715879 43.23966075 -24.82718906 39.29439443 -24.81268692 35.34865379 C-24.81060462 33.90595833 -24.81526508 32.46323379 -24.82740784 31.02058792 C-24.89978785 21.82065456 -24.48767142 14.13898255 -18.32366943 6.92758179 C-17.66366943 6.40035522 -17.00366943 5.87312866 -16.32366943 5.32992554 C-15.66366943 4.7846521 -15.00366943 4.23937866 -14.32366943 3.67758179 C-9.57162926 0.32702221 -5.76122173 -0.02252396 0 0 Z " transform="translate(295.32366943359375,-0.267425537109375)" style="fill: rgb(255, 255, 255);"/>
</svg>